<svg xmlns="http://www.w3.org/2000/svg" style="display: none;">
  <symbol id="facebook" viewBox="0 0 512 512">
    <path d="m375 288l14-93-89 0 0-60c0-25 13-50 53-50l40 0 0-79c0 0-37-6-72-6-73 0-121 44-121 125l0 70-81 0 0 93 81 0 0 224 100 0 0-224z"/>
  </symbol>

  <symbol id="github" viewBox="0 0 512 512">
    <path d="m202 329c0 21-11 55-37 55-25 0-36-34-36-55 0-21 11-55 36-55 26 0 37 34 37 55z m294-51c0 32-3 66-17 95-38 77-143 75-217 75-76 0-186 3-226-75-14-29-20-63-20-95 0-42 14-81 42-113-6-16-8-33-8-49 0-22 5-32 14-52 46 0 75 9 109 36 29-7 59-10 89-10 27 0 54 3 80 9 34-26 63-35 108-35 10 20 15 30 15 52 0 16-3 33-8 48 28 32 39 72 39 114z m-64 51c0-44-27-83-74-83-19 0-37 4-56 6-15 2-30 3-45 3-15 0-30-1-45-3-19-2-37-6-56-6-47 0-73 39-73 83 0 88 80 101 150 101l48 0c70 0 151-13 151-101z m-83-55c-26 0-37 34-37 55 0 21 11 55 37 55 26 0 37-34 37-55 0-21-11-55-37-55z"/>
  </symbol>

  <symbol id="instagram" viewBox="0 0 512 512">
    <path d="m256 141c-63 0-115 51-115 115 0 64 52 115 115 115 64 0 115-51 115-115 0-64-51-115-115-115z m0 190c-41 0-75-34-75-75 0-41 34-75 75-75 41 0 75 34 75 75 0 41-34 75-75 75z m147-195c0 15-12 27-27 27-15 0-27-12-27-27 0-14 12-26 27-26 15 0 27 12 27 26z m76 28c-2-36-10-68-37-94-26-27-58-35-93-37-37-2-148-2-185 0-36 2-68 10-94 37-27 26-35 58-36 93-3 37-3 148 0 185 1 36 9 68 36 94 26 26 58 35 94 36 37 3 148 3 185 0 35-1 67-9 93-36 27-26 35-58 37-94 2-37 2-147 0-184z m-48 224c-8 20-23 35-43 43-29 11-99 9-132 9-32 0-103 2-132-9-20-8-35-23-43-43-11-29-9-99-9-132 0-33-2-103 9-132 8-20 23-35 43-43 30-11 100-9 132-9 33 0 103-2 132 9 20 8 35 23 43 43 12 29 9 99 9 132 0 33 3 103-9 132z"/>
  </symbol>

  <symbol id="strava" viewBox="0 0 512 512">
    <path d="m222 0l-151 292 89 0 62-116 62 116 89 0z m151 292l-44 88-45-88-67 0 112 220 111-220z"/>
  </symbol>

  <symbol id="twitter" viewBox="0 0 512 512">
    <path d="m459 152c1 4 1 9 1 13 0 139-106 299-299 299-59 0-115-17-161-47 8 1 17 1 25 1 49 0 95-16 131-45-47-1-85-31-98-72 6 0 12 1 19 1 10 0 19-1 28-3-48-10-84-52-84-103l0-2c14 8 30 13 47 14-28-19-47-51-47-88 0-19 6-37 15-53 51 64 129 106 216 110-2-8-2-16-2-24 0-58 46-105 104-105 31 0 58 13 77 33 24-4 47-13 67-25-8 24-25 45-46 58 21-3 41-8 60-17-14 21-32 40-53 55z"/>
  </symbol>
</svg>
